<svg xmlns="http://www.w3.org/2000/svg" xmlns:xlink="http://www.w3.org/1999/xlink" viewBox="0 0 345.34 59"><title>Empower Financial Network</title><defs><style>.cls-2{fill:#d19b3f;}.cls-3{clip-path:url(#clippath-1);}.cls-4{fill:#e6d193;}.cls-5{clip-path:url(#clippath);}</style><clipPath id="clippath-1"><rect class="cls-1" y="2.18" width="64.11" height="55"/></clipPath></defs><polygon class="cls-4" points="72.34 4.43 72.34 27.79 114.26 27.79 114.26 22.91 82.41 22.91 82.41 18.55 108.27 18.55 112.63 13.94 82.14 13.94 82.14 9.59 109.63 9.59 114.26 4.43 72.34 4.43"/><path class="cls-4" d="M118.08,27.79v-14.59c0-3.65,2.97-6.61,6.63-6.61h34.39c3.66,0,6.63,2.96,6.63,6.61v14.59h-7.62l.47-15.49h-12.8v15.49h-8.17v-15.49h-12.19v15.49h-7.35,0Z"/><path class="cls-4" d="M194.9,6.6h-25.44v29.96h7.35v-8.77h20c2.3,0,4.17-1.86,4.17-4.16v-10.97c0-3.35-2.72-6.06-6.07-6.06h0ZM193.7,23.92h-17.01v-12.3h17.01v12.3h0Z"/><path class="cls-4" d="M227.81,6.6h-15.62c-4.35,0-7.88,3.52-7.88,7.86v6.35c0,4.34,3.53,7.87,7.88,7.87h15.62c4.35,0,7.88-3.52,7.88-7.87v-6.35c0-4.34-3.53-7.86-7.88-7.86ZM227.86,23.92h-15.85v-12.3h15.85v12.3h0Z"/><polygon class="cls-4" points="234.46 6.6 242.77 6.6 251.21 18.29 261.69 6.6 272.58 18.29 281.09 6.6 288.57 6.6 272.92 28.68 261.69 16.52 251.14 28.68 234.46 6.6"/><path class="cls-4" d="M319.35,19.03v-5.98c0-3.38-2.75-6.11-6.12-6.11h-18.52c-3.39,0-6.12,2.74-6.12,6.11v9.52c0,3.38,2.74,6.11,6.12,6.11h24.64v-5.23h-23.01v-4.42h23.01ZM296.34,11.49h16.19v3.81h-16.19v-3.81Z"/><path class="cls-4" d="M322.81,28.68h7.35V11.83h12.38l2.45-4.89-15.93-.24c-3.44-.06-6.26,2.72-6.26,6.16v15.83h0Z"/><path class="cls-4" d="M72.59,38.1h11.06v2.2h-8.4v6.82h7.76v2.19h-7.76v9.28h-2.66v-20.5h0Z"/><path class="cls-4" d="M90.25,39.73c0,.91-.64,1.67-1.71,1.67-.97,0-1.62-.75-1.62-1.67s.68-1.67,1.67-1.67,1.65.73,1.66,1.67ZM87.25,58.59v-14.71h2.66v14.71h-2.66Z"/><path class="cls-4" d="M95.08,47.86c0-1.54-.05-2.75-.12-3.98h2.36l.14,2.42h.07c.73-1.38,2.43-2.75,4.87-2.75,2.03,0,5.19,1.21,5.19,6.26v8.78h-2.66v-8.48c0-2.38-.89-4.37-3.4-4.37-1.75,0-3.13,1.25-3.62,2.75-.11.32-.18.8-.18,1.24v8.86h-2.66v-10.73Z"/><path class="cls-4" d="M120.86,58.59l-.24-1.86h-.08c-.81,1.14-2.4,2.19-4.51,2.19-2.98,0-4.5-2.11-4.5-4.22,0-3.56,3.16-5.51,8.85-5.48v-.31c0-1.19-.33-3.41-3.35-3.39-1.37,0-2.8.4-3.84,1.1l-.61-1.77c1.22-.79,3.01-1.29,4.87-1.29,4.51,0,5.61,3.07,5.61,6.01v5.5c0,1.26.06,2.51.23,3.53h-2.42ZM120.44,51.08c-2.9-.06-6.22.46-6.22,3.3,0,1.75,1.16,2.56,2.51,2.56,1.94,0,3.16-1.21,3.59-2.47.1-.29.13-.58.13-.85v-2.56h-.01Z"/><path class="cls-4" d="M128.07,47.86c0-1.54-.05-2.75-.12-3.98h2.36l.14,2.42h.07c.73-1.38,2.43-2.75,4.87-2.75,2.03,0,5.19,1.21,5.19,6.26v8.78h-2.66v-8.48c0-2.38-.89-4.37-3.4-4.37-1.75,0-3.13,1.25-3.62,2.75-.11.32-.18.8-.18,1.24v8.86h-2.66v-10.73Z"/><path class="cls-4" d="M156.19,58.06c-.7.35-2.24.85-4.22.85-4.44,0-7.35-3.01-7.35-7.51s3.1-7.84,7.92-7.84c1.57,0,3.01.4,3.72.79l-.6,2.05c-.66-.35-1.66-.7-3.14-.7-3.36,0-5.2,2.51-5.2,5.57,0,3.41,2.2,5.5,5.13,5.5,1.5,0,2.52-.38,3.28-.7l.45,2.01h0Z"/><path class="cls-4" d="M163.02,39.73c0,.91-.64,1.67-1.71,1.67-.97,0-1.62-.75-1.62-1.67s.68-1.67,1.67-1.67,1.65.73,1.66,1.67ZM160.03,58.59v-14.71h2.66v14.71h-2.66Z"/><path class="cls-4" d="M176.03,58.59l-.24-1.86h-.08c-.81,1.14-2.4,2.19-4.51,2.19-2.98,0-4.5-2.11-4.5-4.22,0-3.56,3.16-5.51,8.85-5.48v-.31c0-1.19-.33-3.41-3.35-3.39-1.37,0-2.8.4-3.84,1.1l-.61-1.77c1.22-.79,3.01-1.29,4.87-1.29,4.5,0,5.6,3.07,5.6,6.01v5.5c0,1.26.06,2.51.23,3.53h-2.42.01ZM175.61,51.08c-2.9-.06-6.22.46-6.22,3.3,0,1.75,1.16,2.56,2.51,2.56,1.94,0,3.16-1.21,3.59-2.47.1-.29.13-.58.13-.85v-2.56h-.01Z"/><path class="cls-4" d="M183.24,37h2.66v21.59h-2.66v-21.59Z"/><path class="cls-4" d="M194,58.59v-20.5h2.91l6.57,10.36c1.5,2.41,2.7,4.56,3.66,6.68l.07-.04c-.24-2.74-.29-5.24-.29-8.41v-8.59h2.49v20.5h-2.7l-6.53-10.38c-1.42-2.3-2.79-4.63-3.82-6.86l-.1.04c.16,2.6.19,5.07.19,8.46v8.77h-2.49v-.02Z"/><path class="cls-4" d="M215.46,51.72c.05,3.62,2.35,5.11,5.05,5.11,1.92,0,3.09-.35,4.08-.75l.47,1.91c-.94.43-2.58.94-4.92.94-4.53,0-7.25-3.01-7.25-7.42s2.62-7.94,6.93-7.94c4.81,0,6.06,4.2,6.06,6.92,0,.56-.04.96-.1,1.25h-10.33.01ZM223.31,49.79c.02-1.69-.69-4.33-3.7-4.33-2.73,0-3.9,2.47-4.12,4.33h7.81Z"/><path class="cls-4" d="M232.51,39.64v4.24h3.85v2.02h-3.85v7.93c0,1.83.52,2.87,2.03,2.87.69,0,1.21-.08,1.55-.19l.12,2.04c-.52.2-1.35.37-2.4.37-1.23,0-2.25-.4-2.89-1.13-.74-.81-1.04-2.11-1.04-3.83v-8.03h-2.28v-2.02h2.28v-3.55l2.62-.69v-.02Z"/><path class="cls-4" d="M240.75,43.88l1.98,7.47c.43,1.64.8,3.18,1.1,4.69h.07c.32-1.48.81-3.08,1.32-4.67l2.41-7.49h2.25l2.29,7.36c.52,1.75.95,3.3,1.3,4.8h.07c.26-1.49.67-3.04,1.15-4.78l2.1-7.38h2.64l-4.76,14.71h-2.43l-2.24-7.01c-.54-1.66-.95-3.12-1.31-4.85h-.06c-.37,1.77-.84,3.3-1.35,4.87l-2.37,6.99h-2.45l-4.44-14.71h2.73Z"/><path class="cls-4" d="M275.22,51.1c0,5.44-3.78,7.82-7.33,7.82-4,0-7.09-2.91-7.09-7.57,0-4.92,3.25-7.8,7.31-7.8s7.1,3.07,7.1,7.55h0ZM263.53,51.27c0,3.23,1.85,5.66,4.46,5.66s4.49-2.39,4.49-5.74c0-2.49-1.25-5.63-4.44-5.63s-4.52,2.93-4.52,5.72h.01Z"/><path class="cls-4" d="M278.66,48.47c0-1.74-.05-3.22-.12-4.59h2.35l.11,2.88h.1c.69-1.98,2.31-3.22,4.1-3.22.29,0,.5.02.74.07v2.51c-.27-.06-.54-.08-.91-.08-1.89,0-3.22,1.42-3.59,3.42-.07.37-.11.81-.11,1.25v7.86h-2.66v-10.12h-.01Z"/><path class="cls-4" d="M291.47,50.62h.06c.36-.51.87-1.17,1.29-1.68l4.34-5.07h3.22l-5.69,6.05,6.49,8.66h-3.27l-5.07-7.06-1.37,1.54v5.54h-2.66v-21.59h2.66v13.62h0Z"/><g id="Logo_Shape"><g class="cls-5"><g class="cls-3"><path class="cls-2" d="M37.82,47.69c1.18,9.5-7.59,9.1-7.59,9.1,0,0-8.16-.04-8.23-9.26-.01-2.07.91-4.03,2.52-5.34,3.52-2.85,9.32-5.55,6.89-12.04,0,0,4.33,6.29.37,10.62-4.47,4.89-6.22,7.97-5.02,10.66,1.94,4.97,6.14,3.85,6.75,3.54,4.68-2.4,4.32-7.29,4.32-7.29"/><path class="cls-2" d="M33.38,54.31c1.94-1.11,2.81-3.17,2.59-5.35-.05-.71-.19-1.41-.36-2.11.32.65.55,1.35.66,2.08.41,2.22-.66,4.66-2.89,5.38"/><path class="cls-2" d="M41.06,51.53c.91-1.99,1.87-3.97,3.08-5.8,1.27-1.79,2.92-3.38,4.94-4.31,1.33-.64,2.8-.94,4.26-.98-1.09.11-2.15.34-3.17.73-2.36.92-4.33,2.67-5.8,4.71-1.24,1.79-2.25,3.74-3.3,5.64"/><path class="cls-2" d="M35.83,57.18c2.25-.56,4.18-2,5.72-3.7.14-.17.55-.66.69-.84.42-.57.85-1.2,1.21-1.81.23-.35.49-.91.69-1.28.58-1.06,1.26-2.15,2-3.11.24-.34.66-.83.93-1.15l.5-.54c1.36-1.41,2.93-2.71,4.8-3.37-1.77.83-3.24,2.17-4.54,3.61-1.45,1.64-2.65,3.49-3.64,5.43-.11.22-.23.44-.36.64-.14.21-.45.74-.6.94-.14.2-.52.69-.67.9-.15.18-.58.67-.73.84-1.61,1.68-3.67,3.09-6,3.44"/><path class="cls-2" d="M33.97,28.47s-2.07-.8-.84-2.53c1.22-1.73,9.03-5.06,13.62-9.06,4.33-3.77,5.65-5.69,7.32-8.84.22-.42.39-.87.48-1.34.38-1.84.17-2.46-.89-4.19,0,0,3.14,1.39,3.25,4.44.17,5-3.67,10.17-3.67,10.17,0,0,2.89-4.95,1.59-8.93,0,0-3.22,6.2-7.48,9.31-4.26,3.12-12.15,7.67-13.77,9.8,0,0-.46.53.38,1.18"/><path class="cls-2" d="M59.03,10.44c.85,1.19-.56,5.84-.56,5.84,5.76-10.79.62-14.1.62-14.1,3.62,7.14-7.25,16.44-10.49,18.23-.44.24-.84.55-1.29.76-14.1,6.74-11.5,13.57-11.5,13.57,0,0-.34-5.59,9.59-11.63,10.63-4.89,13.64-12.67,13.64-12.67"/><path class="cls-2" d="M61.39,15.24c-.03,2.36-1.15,4.66-1.15,4.66,3.85-4.07,3.46-8.99,3.46-8.99,0,0-5.45,8.82-15.29,13.43-9.17,3.29-12.27,13.63-12.27,13.63,0,0,4.72-10.14,12.54-12.9,7.45-2.78,12.71-9.83,12.71-9.83"/><path class="cls-2" d="M60.99,21.06c.37.81-1.45,3.96-1.45,3.96,2.42-2.5,3.89-6.26,3.89-6.26,0,0-3.51,1.55-5.34,3.34-1.43,1.41-4.58,4.1-6.69,4.89-8.69,2.7-11.95,8.06-11.95,8.06,0,0,4.19-4.12,11.65-6.94.71-.27,1.39-.6,2.03-1.02,3.67-2.44,6.76-6,7.86-6.03"/><path class="cls-2" d="M53.12,31.31s2.05.14,4.05,1.38l-1.01-.98s1.77-1.04,3.82-3.48c2.05-2.44,2.33-3.2,2.33-3.2,0,0-2.7.34-4.6,2.84-1.39,1.55-3.61,3.23-4.6,3.46"/><path class="cls-2" d="M38.33,36.65s6.97-4.3,17.29-3.71c0,0,3.71-.22,8.49,5.03,0,0-1.18.79-4.56-.98,0,0-2.19-.16-6.23-1.47,0,0-7.91-1.51-15,1.13"/><path class="cls-2" d="M34.62,40.05s2.92-2.95,7.9-3.82c1.69-.31,4.91-.6,10.4,0,0,0-2.67,1.64-6.44,1.92-3.77.28-8.41-.26-11.87,1.9"/><path class="cls-2" d="M52.92,39.26c2.11-1.27,4.52.15,6.78,0-1.14.22-2.31,0-3.43-.21-1.11-.19-2.29-.25-3.35.21"/><path class="cls-2" d="M57.88,26.8c-2.02,1.59-4.22,3.06-6.73,3.76-.38.1-.9.2-1.28.24-2.97.29-5.88,1.34-8.32,3.07-.7.49-1.37,1.03-1.98,1.64.57-.64,1.23-1.2,1.92-1.72,2.42-1.8,5.36-2.92,8.36-3.19.37-.04.89-.13,1.25-.22,2.48-.68,4.7-2.09,6.77-3.58"/><path class="cls-2" d="M43.08,33.99c2.39-1.42,4.94-2.62,7.64-3.3,1.29-.37,2.51-1,3.69-1.66,1.19-.69,2.37-1.4,3.47-2.23-.9,1.07-2.02,1.93-3.17,2.72-1.16.77-2.4,1.47-3.79,1.87-.29.08-.71.18-1,.26-2.32.66-4.55,1.56-6.84,2.35"/><path class="cls-2" d="M28.74,49.61s3.08-5.37,7.3-5.63c1.2-.11,1.77-.84,1.77-.84,0,0-2.74-.61-5.23.7-2.49,1.31-3.4,4.21-3.84,5.77"/><path class="cls-2" d="M32.03,43.69s2.2-1.89,4.79-2.43c.45-.09.91-.11,1.37-.06.88.08,2.59.2,3.25-.06,0,0-1.09,1.6-3.11,1.5-2.02-.11-4.21-.17-6.3,1.05"/><path class="cls-2" d="M32.45,42.61s3.33-3.54,7.13-3.69c1.48,0,4.41.2,5.74.13,0,0-.61,1.43-3.88,1.59-3.27.17-5.6-.51-8.99,1.96"/><path class="cls-2" d="M18.79,39.68c1.92-.77,4.58-.99,6.28.37-1.98-.92-4.19-.66-6.28-.37"/><path class="cls-2" d="M13.88,36.88s8.16-.67,11.28,2.04h.42s-.59-4-11.7-2.04"/><path class="cls-2" d="M7.95,33.62s11.39-.63,17.21,3.9c0,0-.93-2.57-5.88-3.65-4.96-1.07-11.32-.25-11.32-.25"/><path class="cls-2" d="M3.42,25.63s3.58,1.94,4.53,3.25c.95,1.31,4.24,2.23,4.24,2.23,0,0,6.18.97,8.37,2.84,0,0-1.22-2.23-5.9-3.22-2.19-.48-2.38-.38-3.58-.94-1.2-.56-6.16-3.74-7.65-4.16"/><path class="cls-2" d="M0,18.72s1.18,3.32,3.94,5.94c0,0-1.75-3.58-1.81-4.07,0,0,2.21,1.1,5.67,4.61,3.46,3.52,6.94,3.92,8.2,4.43,1.27.51,5.38,2.49,7.99,5.67,0,0-2.99-5.5-9.43-7.12-3.27-1.03-5.65-2.8-6.18-3.25-.53-.44-5.52-5.69-8.39-6.22"/><path class="cls-2" d="M0,10.91s.49,5.51,3.65,8.33c0,0-1.48-3.46-1.22-4.34,0,0,4.6,6.95,10.59,9.74,5.99,2.78,10.38,5.58,12.82,11.24,0,0-.8-6.27-9.53-10.65C9.22,22.74,3.94,15.94,0,10.91"/><path class="cls-2" d="M3.42,3.52s-.7,2.15.74,4.38c1.43,2.23,4.81,7.59,4.81,7.59,0,0,4.77,5.14,13.29,9.31,8.06,5.35,5.79,11.93,4.89,14.01,0,0,.06-6.07-7.41-12.02-1.95-1.78-7.49-3.94-8.66-4.73C8.96,20.65-.02,13.26,3.42,3.52"/><path class="cls-2" d="M9.51,3.36s-2.65,2.63-2.66,6.14c0,1,.28,3.32,3.92,6.97,3.64,3.65,10.71,7.5,10.71,7.5,0,0,4.13,2.32,6.92,6.87,0,0,2.36-3.37,3.12-3.58v-.41s-3.87-3.47-7.48-4.93c-3.61-1.46-9.78-7.12-9.78-7.12,0,0-7.85-6.96-4.76-11.43"/></g></g></g></svg>