<?xml version="1.0" encoding="utf-8"?>
<!-- Generator: Adobe Illustrator 24.3.0, SVG Export Plug-In . SVG Version: 6.00 Build 0)  -->
<svg version="1.1" id="Layer_1" xmlns="http://www.w3.org/2000/svg" xmlns:xlink="http://www.w3.org/1999/xlink" x="0px" y="0px"
	 viewBox="0 0 595.28 508.6" style="enable-background:new 0 0 595.28 508.6;" xml:space="preserve">
<style type="text/css">
	.st0{fill:none;}
	.st1{fill:#293578;}
	.st2{fill:#29AAE1;}
</style>
<g>
	<rect x="152.16" y="315.12" class="st0" width="270.64" height="27.95"/>
	<path class="st1" d="M177.08,326.39c-0.56,1.01-1.42,1.83-2.58,2.44c-1.16,0.62-2.6,0.93-4.32,0.93H167v7.56h-5.13v-21.06h8.31
		c1.68,0,3.1,0.29,4.26,0.87c1.16,0.58,2.03,1.38,2.61,2.4c0.58,1.02,0.87,2.19,0.87,3.51
		C177.92,324.26,177.64,325.38,177.08,326.39z M171.98,324.99c0.48-0.46,0.72-1.11,0.72-1.95s-0.24-1.49-0.72-1.95
		c-0.48-0.46-1.21-0.69-2.19-0.69H167v5.28h2.79C170.77,325.68,171.5,325.45,171.98,324.99z"/>
	<path class="st1" d="M191.33,337.32l-4.38-7.95h-1.23v7.95h-5.13v-21.06h8.61c1.66,0,3.07,0.29,4.24,0.87
		c1.17,0.58,2.04,1.38,2.62,2.39s0.87,2.13,0.87,3.38c0,1.4-0.4,2.65-1.19,3.75s-1.96,1.88-3.5,2.34l4.86,8.34H191.33z
		 M185.72,325.74h3.18c0.94,0,1.65-0.23,2.12-0.69c0.47-0.46,0.71-1.11,0.71-1.95c0-0.8-0.24-1.43-0.71-1.89
		c-0.47-0.46-1.18-0.69-2.12-0.69h-3.18V325.74z"/>
	<path class="st1" d="M204.66,336.15c-1.65-0.92-2.96-2.21-3.93-3.86c-0.97-1.65-1.45-3.5-1.45-5.56s0.48-3.91,1.45-5.55
		s2.28-2.92,3.93-3.84c1.65-0.92,3.46-1.38,5.44-1.38s3.8,0.46,5.45,1.38c1.65,0.92,2.95,2.2,3.9,3.84
		c0.95,1.64,1.42,3.49,1.42,5.55s-0.48,3.92-1.44,5.56c-0.96,1.65-2.26,2.94-3.9,3.86c-1.64,0.92-3.45,1.38-5.43,1.38
		S206.31,337.07,204.66,336.15z M214.14,331.17c1.01-1.12,1.52-2.6,1.52-4.44c0-1.86-0.51-3.34-1.52-4.46
		c-1.01-1.11-2.35-1.67-4.04-1.67c-1.7,0-3.06,0.55-4.06,1.65c-1.01,1.1-1.51,2.59-1.51,4.47c0,1.86,0.5,3.34,1.51,4.46
		c1.01,1.11,2.36,1.67,4.06,1.67C211.79,332.85,213.13,332.29,214.14,331.17z"/>
	<path class="st1" d="M228.24,336.15c-1.65-0.92-2.96-2.21-3.93-3.86c-0.97-1.65-1.45-3.5-1.45-5.56s0.48-3.91,1.45-5.55
		s2.28-2.92,3.93-3.84c1.65-0.92,3.46-1.38,5.44-1.38s3.8,0.46,5.45,1.38c1.65,0.92,2.95,2.2,3.9,3.84
		c0.95,1.64,1.42,3.49,1.42,5.55s-0.48,3.92-1.44,5.56c-0.96,1.65-2.26,2.94-3.9,3.86c-1.64,0.92-3.45,1.38-5.43,1.38
		S229.89,337.07,228.24,336.15z M237.72,331.17c1.01-1.12,1.52-2.6,1.52-4.44c0-1.86-0.51-3.34-1.52-4.46
		c-1.01-1.11-2.35-1.67-4.04-1.67c-1.7,0-3.06,0.55-4.06,1.65c-1.01,1.1-1.51,2.59-1.51,4.47c0,1.86,0.5,3.34,1.51,4.46
		c1.01,1.11,2.36,1.67,4.06,1.67C235.37,332.85,236.71,332.29,237.72,331.17z"/>
	<path class="st1" d="M261.02,316.26v4.11h-8.58v4.44h6.42v3.99h-6.42v8.52h-5.13v-21.06H261.02z"/>
	<path class="st1" d="M274.59,336.15c-1.65-0.92-2.96-2.21-3.93-3.86c-0.97-1.65-1.45-3.5-1.45-5.56s0.48-3.91,1.45-5.55
		s2.28-2.92,3.93-3.84c1.65-0.92,3.46-1.38,5.44-1.38s3.8,0.46,5.45,1.38c1.65,0.92,2.95,2.2,3.9,3.84
		c0.95,1.64,1.42,3.49,1.42,5.55s-0.48,3.92-1.44,5.56c-0.96,1.65-2.26,2.94-3.9,3.86c-1.64,0.92-3.45,1.38-5.43,1.38
		S276.24,337.07,274.59,336.15z M284.07,331.17c1.01-1.12,1.52-2.6,1.52-4.44c0-1.86-0.51-3.34-1.52-4.46
		c-1.01-1.11-2.35-1.67-4.04-1.67c-1.7,0-3.06,0.55-4.06,1.65c-1.01,1.1-1.51,2.59-1.51,4.47c0,1.86,0.5,3.34,1.51,4.46
		c1.01,1.11,2.36,1.67,4.06,1.67C281.72,332.85,283.06,332.29,284.07,331.17z"/>
	<path class="st1" d="M307.37,316.26v4.11h-8.58v4.44h6.42v3.99h-6.42v8.52h-5.13v-21.06H307.37z"/>
	<path class="st1" d="M330.14,316.26v4.11h-8.58v4.44h6.42v3.99h-6.42v8.52h-5.13v-21.06H330.14z"/>
	<path class="st1" d="M337.88,316.26v12.6c0,1.26,0.31,2.23,0.93,2.91c0.62,0.68,1.53,1.02,2.73,1.02s2.12-0.34,2.76-1.02
		c0.64-0.68,0.96-1.65,0.96-2.91v-12.6h5.13v12.57c0,1.88-0.4,3.47-1.2,4.77c-0.8,1.3-1.88,2.28-3.23,2.94
		c-1.35,0.66-2.85,0.99-4.51,0.99s-3.15-0.33-4.46-0.97c-1.31-0.65-2.34-1.63-3.1-2.94c-0.76-1.31-1.14-2.9-1.14-4.79v-12.57H337.88
		z"/>
	<path class="st1" d="M372.83,337.32h-5.13l-8.58-12.99v12.99h-5.13v-21.06h5.13l8.58,13.05v-13.05h5.13V337.32z"/>
	<path class="st1" d="M390.25,317.58c1.66,0.88,2.94,2.12,3.85,3.71s1.37,3.43,1.37,5.5c0,2.06-0.46,3.89-1.37,5.49
		c-0.91,1.6-2.2,2.84-3.87,3.72c-1.67,0.88-3.61,1.32-5.81,1.32h-7.89v-21.06h7.89C386.66,316.26,388.59,316.7,390.25,317.58z
		 M388.63,331.29c1.08-1.06,1.62-2.56,1.62-4.5c0-1.94-0.54-3.45-1.62-4.53c-1.08-1.08-2.59-1.62-4.53-1.62h-2.43v12.24h2.43
		C386.04,332.88,387.55,332.35,388.63,331.29z"/>
	<path class="st1" d="M401.83,336.78c-1.22-0.5-2.2-1.24-2.92-2.22c-0.73-0.98-1.12-2.16-1.16-3.54h5.46
		c0.08,0.78,0.35,1.38,0.81,1.79s1.06,0.61,1.8,0.61c0.76,0,1.36-0.17,1.8-0.52c0.44-0.35,0.66-0.83,0.66-1.46
		c0-0.52-0.18-0.95-0.53-1.29s-0.78-0.62-1.29-0.84s-1.24-0.47-2.17-0.75c-1.36-0.42-2.47-0.84-3.33-1.26
		c-0.86-0.42-1.6-1.04-2.22-1.86c-0.62-0.82-0.93-1.89-0.93-3.21c0-1.96,0.71-3.5,2.13-4.61c1.42-1.11,3.27-1.67,5.55-1.67
		c2.32,0,4.19,0.56,5.61,1.67c1.42,1.11,2.18,2.66,2.28,4.64h-5.55c-0.04-0.68-0.29-1.22-0.75-1.61s-1.05-0.58-1.77-0.58
		c-0.62,0-1.12,0.17-1.5,0.5s-0.57,0.81-0.57,1.42c0,0.68,0.32,1.21,0.96,1.59c0.64,0.38,1.64,0.79,3,1.23
		c1.36,0.46,2.46,0.9,3.31,1.32c0.85,0.42,1.58,1.03,2.21,1.83c0.62,0.8,0.93,1.83,0.93,3.09c0,1.2-0.31,2.29-0.92,3.27
		c-0.61,0.98-1.5,1.76-2.66,2.34c-1.16,0.58-2.53,0.87-4.11,0.87C404.43,337.53,403.05,337.28,401.83,336.78z"/>
</g>
<polygon class="st1" points="336.46,276.38 243.78,276.38 243.78,208.21 243.78,188.04 289.99,146.17 336.46,188.3 336.46,208.21 
	392.12,208.21 289.99,115.79 188.12,208.21 221.57,208.21 221.57,276.38 221.57,298.6 243.78,298.6 336.46,298.6 358.67,298.6 
	358.67,276.38 358.67,214.09 336.46,214.09 "/>
<path class="st2" d="M328.31,189.99c-2.31,0-4.18,1.88-4.18,4.18c0,0.61,0.14,1.19,0.38,1.71l-12.93,13.1
	c-0.51-0.23-1.08-0.35-1.67-0.35c-2.31,0-4.18,1.88-4.18,4.18c0,0.78,0.23,1.5,0.6,2.12l-19.84,24.54
	c-0.56-0.28-1.18-0.45-1.85-0.45c-2.31,0-4.18,1.88-4.18,4.18c0,0.26,0.03,0.52,0.08,0.77l-25.78,12.99
	c-0.74-0.67-1.72-1.09-2.79-1.09c-2.31,0-4.18,1.88-4.18,4.18s1.88,4.18,4.18,4.18c2.31,0,4.18-1.88,4.18-4.18
	c0-0.14-0.03-0.27-0.04-0.41l26.04-13.12c0.7,0.53,1.56,0.85,2.5,0.85c2.31,0,4.18-1.88,4.18-4.18c0-0.52-0.11-1.02-0.29-1.49
	l20.15-24.92c0.39,0.12,0.8,0.21,1.23,0.21c2.31,0,4.18-1.88,4.18-4.18c0-0.61-0.14-1.19-0.38-1.72l12.93-13.1
	c0.51,0.23,1.08,0.36,1.68,0.36c2.31,0,4.18-1.88,4.18-4.18C332.49,191.86,330.62,189.99,328.31,189.99z"/>
<g>
	<rect x="316.29" y="214.72" class="st2" width="14.17" height="55.57"/>
	<rect x="294.4" y="238.6" class="st2" width="14.17" height="31.7"/>
	<rect x="272.5" y="259.4" class="st2" width="14.17" height="10.89"/>
	<rect x="250.61" y="265.66" class="st2" width="14.17" height="4.64"/>
</g>
<g>
	<path class="st1" d="M298.62,199.2c-0.68,1.12-1.69,2.03-3.02,2.74c-1.33,0.71-2.91,1.1-4.73,1.17v2.92h-2.3v-2.95
		c-2.54-0.22-4.6-0.98-6.16-2.29c-1.56-1.31-2.39-3.09-2.48-5.35h6.55c0.14,1.44,0.84,2.36,2.09,2.77v-5.69
		c-1.87-0.48-3.37-0.95-4.48-1.4c-1.12-0.46-2.09-1.19-2.93-2.2c-0.84-1.01-1.26-2.39-1.26-4.14c0-2.18,0.81-3.94,2.43-5.26
		c1.62-1.32,3.7-2.06,6.25-2.23v-2.92h2.3v2.92c2.52,0.19,4.51,0.92,5.98,2.2c1.46,1.27,2.28,3.04,2.45,5.29h-6.59
		c-0.14-1.3-0.76-2.14-1.84-2.52v5.58c1.99,0.55,3.53,1.04,4.61,1.48c1.08,0.43,2.05,1.15,2.9,2.14c0.85,1,1.28,2.36,1.28,4.09
		C299.64,196.87,299.3,198.08,298.62,199.2z M286.95,186.01c0.37,0.41,0.91,0.77,1.6,1.08v-5c-0.67,0.12-1.2,0.38-1.58,0.77
		s-0.58,0.94-0.58,1.64C286.4,185.09,286.58,185.6,286.95,186.01z M292.57,197.45c0.42-0.46,0.63-1.02,0.63-1.69
		c0-0.62-0.2-1.13-0.59-1.53c-0.4-0.4-0.98-0.74-1.75-1.03v5.11C291.58,198.2,292.15,197.91,292.57,197.45z"/>
</g>
<g>
</g>
<g>
</g>
<g>
</g>
<g>
</g>
<g>
</g>
<g>
</g>
</svg>
